<svg id="Layer_1" height="512" viewBox="0 0 256 256" width="512" xmlns="http://www.w3.org/2000/svg"><g><g><g><path d="m118.958 170.279h-85.75c-15.464 0-28 12.536-28 28v55.721h141.75c0-10.61 0-45.064 0-55.721 0-15.464-12.536-28-28-28z" fill="#6bdddd"/></g></g><g><g><path d="m146.958 256h-141.75c-1.104 0-2-.896-2-2v-55.722c0-16.542 13.458-29.999 30-29.999h85.75c16.542 0 30 13.457 30 29.999v55.722c0 1.104-.895 2-2 2zm-139.75-4h137.75v-53.722c0-14.336-11.663-25.999-26-25.999h-85.75c-14.337 0-26 11.663-26 25.999z" fill="#3762cc"/></g></g><g><g><path d="m19.592 89.225v-5.29c0-14.21 5.353-27.175 14.156-37.046h-26.332v46.984c3.147-2.946 7.418-4.745 12.176-4.648z" fill="#4671c6"/></g></g><g><g><path d="m7.416 95.873c-.27 0-.54-.054-.796-.165-.731-.317-1.204-1.038-1.204-1.835v-46.984c0-1.104.896-2 2-2h26.331c.788 0 1.503.463 1.825 1.182.322.72.192 1.562-.332 2.149-8.802 9.87-13.648 22.555-13.648 35.716v5.289c0 .537-.216 1.052-.6 1.429-.385.375-.914.554-1.44.571-4.068-.107-7.852 1.379-10.77 4.108-.378.355-.868.54-1.366.54zm2-46.984v40.999c2.481-1.467 5.266-2.355 8.176-2.599v-3.354c0-12.704 4.2-24.992 11.907-35.047h-20.083z" fill="#3762cc"/></g></g><g><g><path d="m118.958 170.279h-16.678v83.721h44.678c0-10.61 0-45.064 0-55.721 0-15.464-12.536-28-28-28z" fill="#e0ebfc"/></g></g><g><g><path d="m49.835 170.279h-16.627c-15.464 0-28 12.536-28 28v55.721h44.627z" fill="#e0ebfc"/></g></g><g><g><path d="m49.835 140v30.279l23.878 30.677c1.202 1.544 3.536 1.543 4.737-.002l23.83-30.675v-30.279z" fill="#f9cfcf"/></g></g><g><g><path d="m76.08 204.113c-1.553 0-2.991-.703-3.945-1.929l-23.878-30.677c-.273-.352-.422-.783-.422-1.229v-30.278c0-1.104.896-2 2-2h52.445c1.104 0 2 .896 2 2v30.279c0 .444-.148.876-.421 1.227l-23.831 30.674c-.952 1.228-2.391 1.933-3.944 1.934-.002-.001-.003-.001-.004-.001zm-24.245-34.52 23.456 30.135c.262.336.606.386.789.386h.001c.183 0 .527-.051.788-.387l23.411-30.133v-27.594h-48.445z" fill="#3762cc"/></g></g><g><g><path d="m62.224 186.196 11.489 14.76c1.202 1.544 3.536 1.543 4.736-.002l11.465-14.758z" fill="#e0ebfc"/></g></g><g><g><path d="m76.08 204.112c-1.553 0-2.991-.703-3.945-1.929l-11.488-14.76c-.47-.603-.554-1.421-.219-2.106.336-.687 1.033-1.122 1.797-1.122h27.689c.764 0 1.461.435 1.796 1.121.336.686.252 1.503-.217 2.105l-11.465 14.759c-.953 1.228-2.391 1.932-3.945 1.933-.001-.001-.002-.001-.003-.001zm-9.765-15.917 8.976 11.531c.262.336.606.386.789.386h.001c.183 0 .528-.051.789-.386l8.958-11.531z" fill="#3762cc"/></g></g><g><g><path d="m132.574 89.225v-5.29c0-30.918-25.292-55.982-56.491-55.982-31.199 0-56.491 25.064-56.491 55.982v5.29c-9.81-.199-17.592 7.615-17.592 17.061 0 10.086 8.806 18.065 19.084 16.978 5.83 24.768 28.234 43.221 54.999 43.221 26.767 0 49.169-18.455 54.999-43.221 10.264 1.085 19.084-6.878 19.084-16.978-.001-9.45-7.789-17.26-17.592-17.061z" fill="#f9cfcf"/></g></g><g><g><path d="m76.075 139.498c-2.278 0-4.264-.268-6.068-.817-2.995-.911-5.622-2.443-7.594-4.43-.777-.784-.772-2.051.011-2.829.786-.777 2.051-.771 2.829.011 1.507 1.52 3.554 2.702 5.919 3.422 1.422.433 3.026.644 4.903.644 1.878 0 3.481-.211 4.903-.644 2.367-.72 4.413-1.903 5.919-3.421.776-.785 2.044-.79 2.828-.012.784.777.79 2.044.012 2.828-1.97 1.986-4.596 3.519-7.594 4.431-1.803.549-3.789.817-6.068.817z" fill="#3762cc"/></g></g><g><g><path d="m104.643 117.92c-3.943 0-7.14-3.197-7.14-7.14v-7.616c0-3.943 3.197-7.14 7.14-7.14 3.943 0 7.14 3.197 7.14 7.14v7.616c0 3.943-3.196 7.14-7.14 7.14z" fill="#3762cc"/></g></g><g><g><path d="m45.973 117.92c-3.943 0-7.14-3.197-7.14-7.14v-7.616c0-3.943 3.197-7.14 7.14-7.14 3.943 0 7.14 3.197 7.14 7.14v7.616c0 3.943-3.197 7.14-7.14 7.14z" fill="#3762cc"/></g></g><g><g><path d="m76.083 168.485c-26.756 0-49.766-17.647-56.536-43.126-4.871.036-9.61-1.68-13.233-4.94-4.013-3.61-6.314-8.762-6.314-14.133 0-5.142 2.031-9.964 5.72-13.578 3.23-3.166 7.388-5.052 11.872-5.42v-3.353c0-31.972 26.239-57.982 58.491-57.982s58.49 26.011 58.49 57.982v3.353c4.484.368 8.641 2.254 11.872 5.421 3.688 3.614 5.72 8.437 5.72 13.577 0 5.371-2.301 10.522-6.313 14.132-3.624 3.262-8.376 5.003-13.233 4.941-6.771 25.479-29.78 43.126-56.536 43.126zm-54.997-47.22c.917 0 1.73.631 1.945 1.542 5.776 24.54 27.592 41.679 53.052 41.679 25.459 0 47.275-17.139 53.053-41.679.23-.98 1.148-1.636 2.156-1.531 4.343.459 8.67-.938 11.886-3.83 3.169-2.853 4.987-6.92 4.987-11.159 0-4.058-1.604-7.864-4.52-10.721-2.943-2.884-6.849-4.43-11.032-4.341-.513-.02-1.056-.196-1.439-.571-.384-.376-.601-.892-.601-1.429v-5.289c0-29.766-24.444-53.982-54.49-53.982-30.047 0-54.491 24.217-54.491 53.982v5.289c0 .537-.217 1.053-.601 1.429s-.938.556-1.439.571c-4.156-.116-8.089 1.456-11.032 4.341-2.915 2.855-4.52 6.663-4.52 10.72 0 4.239 1.818 8.307 4.989 11.16 3.213 2.893 7.542 4.291 11.885 3.829.071-.006.142-.01.212-.01z" fill="#3762cc"/></g></g><g><g><path d="m101.731 2c-5.789 0-10.481 4.692-10.481 10.481.001-5.789-4.692-10.481-10.48-10.481h-28.465c-24.791 0-44.889 20.098-44.889 44.889v32.605h62.751c11.644 0 21.084-9.44 21.084-21.084v9.572c0 11.732 9.51 21.242 21.242 21.242h34.465v-41.998c0-24.977-20.249-45.226-45.227-45.226z" fill="#4671c6"/></g></g><g><g><path d="m146.958 91.225h-34.465c-11.766 0-21.519-8.789-23.037-20.146-4.131 6.271-11.235 10.416-19.289 10.416h-62.751c-1.104 0-2-.896-2-2v-32.606c0-25.855 21.034-46.889 46.889-46.889h28.465c4.389 0 8.255 2.276 10.481 5.71 2.226-3.434 6.093-5.71 10.48-5.71 26.041 0 47.227 21.186 47.227 47.227v41.998c0 1.104-.895 2-2 2zm-53.707-32.815v9.572c0 10.61 8.632 19.242 19.242 19.242h32.465v-39.997c0-23.835-19.392-43.227-43.227-43.227-4.676 0-8.48 3.805-8.48 8.48 0 1.104-.896 2-2 2s-2-.896-2-2c0-4.676-3.805-8.48-8.481-8.48h-28.465c-23.649 0-42.889 19.24-42.889 42.889v30.605h60.751c10.522 0 19.084-8.561 19.084-19.084 0-1.104.896-2 2-2s2 .896 2 2z" fill="#3762cc"/></g></g><g><g><path d="m49.835 256h-44.627c-1.104 0-2-.896-2-2v-55.722c0-16.542 13.458-29.999 30-29.999h16.627c1.104 0 2 .896 2 2v83.721c0 1.104-.896 2-2 2zm-42.627-4h40.627v-79.721h-14.627c-14.337 0-26 11.663-26 25.999z" fill="#3762cc"/></g></g><g><g><path d="m49.834 256c-.804 0-1.547-.486-1.855-1.255l-16.919-42.158c-.729-1.821-.375-3.862.926-5.329l7.313-8.242-6.876-24.188c-.445-1.565-.138-3.208.844-4.506.98-1.299 2.476-2.043 4.103-2.043h12.467c1.104 0 2 .896 2 2v83.721c0 .958-.68 1.782-1.621 1.964-.129.024-.256.036-.382.036zm-12.466-83.721c-.495 0-.783.284-.911.454-.128.169-.323.524-.188 1.001l7.176 25.242c.187.657.025 1.363-.428 1.874l-8.04 9.062c-.289.326-.368.78-.205 1.186l13.063 32.549v-71.367h-10.467z" fill="#3762cc"/></g></g><g><g><path d="m102.281 256c-.126 0-.253-.012-.38-.036-.941-.182-1.621-1.006-1.621-1.964v-83.721c0-1.104.896-2 2-2h12.466c1.627 0 3.123.745 4.104 2.043.981 1.299 1.288 2.94.844 4.506l-6.876 24.188 7.312 8.242c1.301 1.467 1.655 3.508.926 5.328l-16.918 42.159c-.31.769-1.053 1.255-1.857 1.255zm1.999-83.721v71.367l13.062-32.55c.163-.404.084-.858-.205-1.185l-8.039-9.062c-.453-.511-.614-1.217-.428-1.874l7.176-25.242c.136-.476-.06-.831-.188-1.001s-.417-.454-.912-.454h-10.466z" fill="#3762cc"/></g></g><g><g><path d="m146.958 256h-44.678c-1.104 0-2-.896-2-2v-83.721c0-1.104.896-2 2-2h16.678c16.542 0 30 13.457 30 29.999v55.722c0 1.104-.895 2-2 2zm-42.678-4h40.678v-53.722c0-14.336-11.663-25.999-26-25.999h-14.678z" fill="#3762cc"/></g></g><g><g><g><path d="m61.351 123.25h-26.053c-4.328 0-7.849-3.521-7.849-7.849v-16.35c0-4.328 3.521-7.849 7.849-7.849h26.053c4.328 0 7.849 3.521 7.849 7.849v16.351c-.001 4.327-3.521 7.848-7.849 7.848zm-26.053-28.048c-2.122 0-3.849 1.727-3.849 3.849v16.351c0 2.122 1.727 3.849 3.849 3.849h26.053c2.122 0 3.849-1.727 3.849-3.849v-16.351c0-2.122-1.727-3.849-3.849-3.849z" fill="#3762cc"/></g></g><g><g><path d="m115.318 123.25h-26.053c-4.327 0-7.848-3.521-7.848-7.849v-16.35c0-4.328 3.521-7.849 7.848-7.849h26.054c4.328 0 7.849 3.521 7.849 7.849v16.351c-.001 4.327-3.522 7.848-7.85 7.848zm-26.053-28.048c-2.122 0-3.848 1.727-3.848 3.849v16.351c0 2.122 1.726 3.849 3.848 3.849h26.054c2.122 0 3.849-1.727 3.849-3.849v-16.351c0-2.122-1.727-3.849-3.849-3.849z" fill="#3762cc"/></g></g></g><g><g><path d="m83.417 108.972h-16.218c-1.104 0-2-.896-2-2s.896-2 2-2h16.218c1.104 0 2 .896 2 2s-.896 2-2 2z" fill="#3762cc"/></g></g><g><g><path d="m242.347 2h-74.925c-6.436 0-11.652 5.217-11.652 11.653v72.364c0 6.436 5.217 11.652 11.652 11.652h21.456v21.764c0 2.673 3.231 4.011 5.121 2.121l23.885-23.885h24.462c6.436 0 11.653-5.217 11.653-11.652v-72.364c.001-6.436-5.216-11.653-11.652-11.653z" fill="#a4c9ff"/></g></g><g><g><g><g><path d="m205 75.686c-2.209 0-4-1.791-4-4v-22.567c0-5.317 4.325-9.643 9.643-9.643 5.571 0 10.104-4.533 10.104-10.104s-4.533-10.104-10.104-10.104h-11.284c-5.571 0-10.104 4.533-10.104 10.104 0 2.209-1.791 4-4 4s-4-1.791-4-4c0-9.982 8.122-18.104 18.104-18.104h11.284c9.982 0 18.104 8.122 18.104 18.104s-8.122 18.104-18.104 18.104c-.905 0-1.643.737-1.643 1.643v22.567c0 2.209-1.791 4-4 4z" fill="#e0ebfc"/></g></g></g><g><g><circle cx="205" cy="85.804" fill="#e0ebfc" r="4.513"/></g></g></g><g><g><g><path d="m178.561 253.584c-15.697 0-28.468-12.77-28.468-28.468v-21.399h5.003v21.399c0 12.938 10.526 23.464 23.464 23.464s23.464-10.526 23.464-23.464v-57.769h5.003v57.769c.002 15.697-12.769 28.468-28.466 28.468z" fill="#4671c6"/></g></g><g><g><path d="m152.595 206.085c-18.1 0-32.826-14.726-32.826-32.826v-36.78c0-4.111 3.344-7.455 7.454-7.455h6.827c1.852 0 3.359 1.507 3.359 3.359s-1.507 3.359-3.359 3.359h-6.827c-.406 0-.737.331-.737.737v36.78c0 14.396 11.712 26.108 26.108 26.108s26.109-11.712 26.109-26.108v-36.78c0-.407-.331-.737-.738-.737h-6.826c-1.852 0-3.359-1.507-3.359-3.359s1.507-3.359 3.359-3.359h6.826c4.111 0 7.455 3.344 7.455 7.455v36.78c.001 18.101-14.724 32.826-32.825 32.826z" fill="#a4c9ff"/></g></g><g><g><path d="m152.595 208.085c-19.203 0-34.825-15.622-34.825-34.825v-36.78c0-5.214 4.241-9.455 9.454-9.455h6.827c2.955 0 5.358 2.403 5.358 5.358s-2.403 5.358-5.358 5.358h-5.563v35.519c0 13.293 10.814 24.108 24.107 24.108 13.294 0 24.109-10.815 24.109-24.108v-35.519h-5.563c-2.955 0-5.359-2.403-5.359-5.358s2.404-5.358 5.359-5.358h6.825c5.214 0 9.456 4.241 9.456 9.455v36.78c0 19.203-15.623 34.825-34.827 34.825zm-25.371-77.061c-3.008 0-5.454 2.447-5.454 5.455v36.78c0 16.997 13.828 30.825 30.825 30.825 16.998 0 30.827-13.828 30.827-30.825v-36.78c0-3.008-2.447-5.455-5.456-5.455h-6.825c-.75 0-1.359.609-1.359 1.358s.609 1.358 1.359 1.358h6.825c1.51 0 2.738 1.229 2.738 2.738v36.78c0 15.499-12.609 28.108-28.109 28.108-15.498 0-28.107-12.609-28.107-28.108v-36.78c0-1.51 1.228-2.738 2.736-2.738h6.827c.749 0 1.358-.609 1.358-1.358s-.609-1.358-1.358-1.358z" fill="#3762cc"/></g></g><g><g><path d="m138.985 137.463h-3.731c-.553 0-1.001-.448-1.001-1.001v-7.461c0-.553.448-1.001 1.001-1.001h3.731c2.613 0 4.731 2.118 4.731 4.731 0 2.613-2.118 4.732-4.731 4.732z" fill="#4671c6"/></g></g><g><g><path d="m169.936 137.463h-3.731c-2.613 0-4.731-2.118-4.731-4.731 0-2.613 2.118-4.731 4.731-4.731h3.731c.553 0 1.001.448 1.001 1.001v7.461c0 .552-.448 1-1.001 1z" fill="#4671c6"/></g></g><g><g><path d="m160.436 194.662c-2.446.898-5.087 1.389-7.841 1.389s-5.394-.491-7.84-1.389c-2.285-.839-4.706.851-4.706 3.285v5.945c0 1.55 1.018 2.921 2.504 3.361 1.435.425 2.91.757 4.414.999v5.681c0 1.382 1.12 2.502 2.502 2.502h6.254c1.382 0 2.502-1.12 2.502-2.502v-5.681c1.504-.242 2.978-.574 4.414-.999 1.487-.44 2.504-1.811 2.504-3.361v-5.945c-.001-2.435-2.422-4.124-4.707-3.285z" fill="#6bdddd"/></g></g><g><g><path d="m207.279 182.896h-5.504c-.829 0-1.501-.672-1.501-1.501v-7.88h8.506v7.88c0 .829-.672 1.501-1.501 1.501z" fill="#6bdddd"/></g></g><g><g><path d="m138.984 139.463h-3.73c-1.654 0-3.001-1.347-3.001-3.001v-7.461c0-1.654 1.347-3.001 3.001-3.001h3.73c3.712 0 6.731 3.02 6.731 6.731s-3.019 6.732-6.731 6.732zm-2.731-4h2.731c1.506 0 2.731-1.226 2.731-2.731s-1.225-2.732-2.731-2.732h-2.731z" fill="#3762cc"/></g></g><g><g><path d="m169.937 139.463h-3.73c-3.712 0-6.731-3.02-6.731-6.731s3.02-6.731 6.731-6.731h3.73c1.654 0 3.001 1.347 3.001 3.001v7.461c0 1.653-1.347 3-3.001 3zm-3.731-9.463c-1.506 0-2.731 1.226-2.731 2.731s1.226 2.731 2.731 2.731h2.731v-5.462z" fill="#3762cc"/></g></g><g><g><path d="m155.723 218.435h-6.254c-2.482 0-4.502-2.02-4.502-4.502v-4.016c-1.015-.21-2.013-.46-2.981-.746-2.318-.688-3.937-2.857-3.937-5.279v-5.945c0-1.796.879-3.482 2.352-4.51 1.474-1.026 3.358-1.272 5.044-.651 4.581 1.681 9.725 1.678 14.302-.001v-.001c1.688-.618 3.574-.374 5.044.653 1.473 1.028 2.352 2.714 2.352 4.51v5.945c0 2.422-1.618 4.592-3.936 5.279-.97.286-1.967.536-2.981.746v4.016c-.001 2.482-2.021 4.502-4.503 4.502zm-12.181-21.99c-.3 0-.595.092-.853.271-.407.284-.641.732-.641 1.229v5.945c0 .663.44 1.257 1.072 1.443 1.335.396 2.736.713 4.164.942.969.156 1.682.993 1.682 1.975v5.681c0 .276.226.502.502.502h6.254c.276 0 .502-.226.502-.502v-5.681c0-.981.713-1.818 1.682-1.975 1.426-.229 2.827-.547 4.164-.942.631-.187 1.071-.78 1.071-1.443v-5.945c0-.497-.233-.945-.641-1.229-.407-.286-.908-.349-1.376-.179-5.463 2.007-11.592 2.007-17.059.002-.171-.062-.348-.094-.523-.094z" fill="#3762cc"/></g></g><g><g><path d="m207.279 184.896h-5.504c-1.931 0-3.501-1.57-3.501-3.501v-7.88c0-1.104.896-2 2-2h8.506c1.104 0 2 .896 2 2v7.88c0 1.93-1.57 3.501-3.501 3.501zm-5.005-4h4.506v-5.381h-4.506z" fill="#3762cc"/></g></g><g><g><circle cx="204.528" cy="166.847" fill="#a4c9ff" r="11.357"/></g></g><g><g><path d="m204.528 172.406c-3.066 0-5.559-2.494-5.559-5.559s2.494-5.558 5.559-5.558 5.558 2.493 5.558 5.558-2.494 5.559-5.558 5.559z" fill="#e0ebfc"/></g></g><g><g><path d="m204.527 180.205c-7.365 0-13.357-5.992-13.357-13.357s5.992-13.357 13.357-13.357 13.357 5.992 13.357 13.357-5.991 13.357-13.357 13.357zm0-22.715c-5.16 0-9.357 4.197-9.357 9.357s4.197 9.357 9.357 9.357 9.357-4.197 9.357-9.357-4.196-9.357-9.357-9.357z" fill="#3762cc"/></g></g><g><g><path d="m204.528 174.406c-4.168 0-7.56-3.391-7.56-7.559s3.392-7.559 7.56-7.559c4.167 0 7.558 3.391 7.558 7.559s-3.391 7.559-7.558 7.559zm0-11.117c-1.963 0-3.56 1.597-3.56 3.559s1.597 3.559 3.56 3.559c1.962 0 3.558-1.597 3.558-3.559s-1.596-3.559-3.558-3.559z" fill="#3762cc"/></g></g></g><g><g><path d="m191.884 124.436c-.645 0-1.296-.125-1.918-.383-1.875-.777-3.087-2.59-3.087-4.619v-19.764h-19.456c-7.528 0-13.652-6.124-13.652-13.652v-72.366c0-7.528 6.124-13.652 13.652-13.652h74.925c7.528 0 13.652 6.124 13.652 13.652v72.365c0 7.528-6.124 13.652-13.652 13.652h-23.635l-23.299 23.299c-.959.96-2.231 1.468-3.53 1.468zm-24.461-120.436c-5.322 0-9.652 4.33-9.652 9.652v72.365c0 5.322 4.33 9.652 9.652 9.652h21.456c1.104 0 2 .896 2 2v21.764c0 .603.432.847.617.924.187.075.663.208 1.09-.217l23.885-23.885c.375-.375.884-.586 1.414-.586h24.463c5.322 0 9.652-4.33 9.652-9.652v-72.365c0-5.322-4.33-9.652-9.652-9.652z" fill="#3762cc"/></g></g></g></svg>