<svg height="512pt" viewBox="-76 0 512 512.001" width="512pt" xmlns="http://www.w3.org/2000/svg"><path d="m179.375 7.566406c-49.324219 0-89.304688 39.980469-89.304688 89.304688v35.972656c5.96875-5.53125 16.460938-8.539062 24.75-7.433594v-4.449218c0-3.539063 3.019532-6.332032 6.523438-6.066407 34.523438 2.480469 67.664062-8.492187 94.230469-25.847656 2.480469-1.621094 5.765625-1.21875 7.78125.949219 22.714843 24.414062 20.574219 23.46875 20.574219 26.65625v8.738281c9.085937-1.359375 19.144531 1.445313 24.746093 6.652344v-35.175781c0-49.320313-39.980469-89.300782-89.300781-89.300782zm0 0" fill="#576574"/><path d="m120.074219 96.867188c0-44.207032 32.121093-80.90625 74.300781-88.039063-4.878906-.828125-9.886719-1.261719-15-1.261719-49.324219 0-89.304688 39.980469-89.304688 89.300782v35.976562c5.96875-5.535156 16.460938-8.542969 24.75-7.433594v-4.449218c0-3.101563 2.320313-5.632813 5.253907-6.03125zm0 0" fill="#3e4b5a"/><path d="m113.699219 171.984375v-50.296875c-15.503907-2.066406-31.710938 9.828125-31.710938 25.953125 0 15.78125 13.914063 28.667969 31.75 25.96875-.015625-.542969-.039062-1.082031-.039062-1.625zm0 0" fill="#ffbeab"/><path d="m113.699219 166.351562c-4.921875-4.800781-7.875-11.445312-7.875-18.707031 0-7.050781 3.09375-13.289062 7.875-17.90625v-8.046875c-15.503907-2.070312-31.710938 9.824219-31.710938 25.953125 0 15.777344 13.914063 28.664063 31.75 25.964844-.015625-.542969-.042969-1.082031-.042969-1.625v-5.632813zm0 0" fill="#f7af9f"/><path d="m244.785156 121.453125v50.738281c0 .550782-.027344 1.09375-.039062 1.640625 17.953125 2.71875 32.015625-10.253906 32.015625-26.1875 0-15.964843-14.074219-28.875-31.976563-26.191406zm0 0" fill="#ffbeab"/><path d="m268.621094 128.582031c-5.816406-5.546875-14.277344-8.5625-23.832032-7.128906v50.738281c0 .550782-.03125 1.09375-.042968 1.640625 9.582031 1.449219 18.058594-1.570312 23.875-7.125zm0 0" fill="#f7af9f"/><path d="m130.046875 275.507812c27.101563 28.796876 71.449219 28.792969 98.550781-.003906l10.039063-10.664062-15.476563-5.996094c-3.425781-1.324219-5.679687-4.617188-5.679687-8.289062v-29.210938c-10.570313 7.289062-23.371094 11.574219-37.15625 11.574219-14.425781 0-27.105469-3.960938-37.476563-10.585938v27.90625c0 3.863281-2.371094 7.328125-5.972656 8.722657l-16.410156 6.363281zm0 0" fill="#ffbeab"/><path d="m172.683594 232.53125c-11.289063-1.136719-21.339844-4.773438-29.835938-10.203125v27.90625c0 3.863281-2.375 7.332031-5.976562 8.726563l-16.410156 6.363281 9.585937 10.179687c11.871094 12.613282 27.046875 19.699219 42.636719 21.265625zm0 0" fill="#f7af9f"/><path d="m316.195312 294.875-80.132812-31.03125-10.328125 10.972656c-25.496094 27.09375-67.222656 27.09375-92.722656 0l-9.898438-10.519531-78.878906 30.578125s-36.511719 15.011719-36.511719 56.632812v136.417969c0 9.191407 7.453125 16.640625 16.640625 16.640625h311.703125c9.191406 0 16.640625-7.453125 16.640625-16.640625v-136.417969c0-41.621093-36.511719-56.632812-36.511719-56.632812zm0 0" fill="#54a0ff"/><path d="m37.726562 487.925781v-151.417969c0-24.234374 12.371094-39.433593 22.714844-47.914062l-16.207031 6.28125s-36.511719 15.007812-36.511719 56.632812v136.414063c0 9.191406 7.449219 16.640625 16.640625 16.640625h30.003907c-9.191407.003906-16.640626-7.449219-16.640626-16.636719zm0 0" fill="#338def"/><path d="m223.355469 86.996094c-2.015625-2.167969-5.300781-2.570313-7.78125-.949219-26.566407 17.355469-61.707031 28.328125-96.234375 25.847656-3.5-.265625-6.523438 2.527344-6.523438 6.066407v53.347656c0 34.289062 26.867188 65.609375 67.507813 65.609375 36.175781 0 65.605469-29.433594 65.605469-65.609375v-57.65625c0-3.1875.140624-2.242188-22.574219-26.65625zm0 0" fill="#ffcdbf"/><path d="m142.820312 171.3125v-59.730469c-7.785156.738281-15.648437.875-23.480468.3125-3.5-.265625-6.523438 2.527344-6.523438 6.066407v53.347656c0 34.289062 26.867188 65.609375 67.507813 65.609375 4.972656 0 9.816406-.578125 14.476562-1.628907-31.808593-6.820312-51.980469-34.277343-51.980469-63.976562zm0 0" fill="#ffbeab"/><path d="m290.347656 358.25c-4.144531 0-7.503906 3.355469-7.503906 7.5v131.25h-85.347656c-4.144532 0-7.503906 3.355469-7.503906 7.5s3.359374 7.5 7.503906 7.5h138.351562c13.3125 0 24.140625-10.828125 24.140625-24.140625v-64.328125c0-4.144531-3.359375-7.5-7.5-7.5-4.144531 0-7.5 3.355469-7.5 7.5v64.328125c0 5.039063-4.101562 9.140625-9.140625 9.140625h-38v-131.25c0-4.144531-3.359375-7.5-7.5-7.5zm0 0"/><path d="m359.988281 351.441406c0-46.117187-39.480469-62.878906-41.164062-63.566406-.046875-.023438-.09375-.039062-.140625-.058594l-80.21875-31.066406c-.007813-.003906-.015625-.007812-.023438-.007812l-12.796875-4.957032c-.53125-.207031-.886719-.726562-.886719-1.296875v-21.421875c14.957032-11.574218 25.308594-28.804687 27.832032-48.464844 18.113281-1.136718 31.449218-15.757812 31.449218-33.023437 0-8.015625-2.90625-15.667969-8.085937-21.613281v-29.160156c0-53.378907-43.425781-96.804688-96.804687-96.804688-53.375 0-96.800782 43.425781-96.800782 96.804688v29.921874c-5.234375 5.890626-8.082031 13.152344-8.082031 20.851563 0 17.242187 13.304687 31.882813 31.441406 33.023437 2.527344 19.894532 13.082031 37.808594 29.417969 49.617188v19.953125c0 .761719-.476562 1.457031-1.1875 1.730469l-13.652344 5.292968c-.007812.003907-.011718.007813-.019531.007813l-78.964844 30.613281c-.046875.019532-.09375.035156-.140625.058594-1.679687.6875-41.160156 17.449219-41.160156 63.566406v136.417969c0 13.3125 10.832031 24.140625 24.140625 24.140625h138.351563c4.144531 0 7.5-3.355469 7.5-7.5s-3.355469-7.5-7.5-7.5h-85.347657v-131.25c0-4.144531-3.359375-7.5-7.5-7.5-4.144531 0-7.503906 3.355469-7.503906 7.5v131.25h-38c-5.039063 0-9.140625-4.101562-9.140625-9.140625v-136.417969c0-35.527344 29.980469-48.890625 31.816406-49.675781l74.074219-28.714844 6.4375 6.839844c28.492187 30.269531 75.164063 30.261719 103.644531-.003906l6.867188-7.292969 75.328125 29.171875c1.378906.59375 31.816406 14.140625 31.816406 49.675781v37.085938c0 4.144531 3.355469 7.5 7.5 7.5s7.5-3.355469 7.5-7.5v-37.085938zm-106.777343-185.972656v-35.773438c9.253906 1.300782 15.828124 8.925782 15.828124 17.882813 0 8.792969-6.363281 16.539063-15.828124 17.890625zm-155.863282-68.664062c0-45.109376 36.695313-81.804688 81.800782-81.804688 45.109374 0 81.804687 36.695312 81.804687 81.804688v19.3125c-2.488281-.792969-5.078125-1.296876-7.742187-1.511719v-1.074219c0-6.5625-.898438-6.242188-24.585938-31.710938-4.527344-4.863281-11.835938-5.738281-17.375-2.117187-27.265625 17.8125-60.507812 26.792969-91.230469 24.667969-.109375-.007813-.222656-.011719-.332031-.019532-6.828125-.515624-12.753906 4.136719-14.234375 10.46875-2.613281.285157-5.738281 1.019532-8.105469 1.855469zm-8.082031 50.773437c0-8.738281 7.363281-15.738281 15.832031-17.515625v35.40625c-9.472656-1.347656-15.832031-9.097656-15.832031-17.890625zm30.832031 23.667969c0-11.199219 0-41.640625 0-51.835938 33.988282 2.074219 69.609375-8.019531 98.355469-26.5 11.617187 12.476563 17.832031 18.933594 19.753906 21.324219v57.011719c0 32-26.085937 58.105468-58.105469 58.105468-35.9375 0-60.003906-27.886718-60.003906-58.105468zm99.953125 98.363281c-22.554687 23.964844-59.238281 23.964844-81.796875 0l-2.269531-2.410156 3.378906-1.308594c6.4375-2.496094 10.761719-8.8125 10.761719-15.71875v-11.601563c9.238281 3.792969 19.378906 5.78125 29.976562 5.78125 10.371094 0 20.761719-2.324218 29.65625-6.292968v12.433594c0 6.714843 4.207032 12.855468 10.46875 15.28125l2.515626.976562zm0 0"/></svg>