<?xml version="1.0" encoding="iso-8859-1"?>
<!-- Generator: Adobe Illustrator 19.0.0, SVG Export Plug-In . SVG Version: 6.00 Build 0)  -->
<svg version="1.1" id="Capa_1" xmlns="http://www.w3.org/2000/svg" xmlns:xlink="http://www.w3.org/1999/xlink" x="0px" y="0px"
	 viewBox="0 0 512 512" style="enable-background:new 0 0 512 512;" xml:space="preserve">
<path style="fill:#9B7E73;" d="M189.004,418.156h-34.162c-30.888,0-55.927-25.039-55.927-55.927V165.407h146.016V362.23
	C244.931,393.117,219.892,418.156,189.004,418.156z"/>
<path style="fill:#E77587;" d="M362.37,390.879L362.37,390.879c0-58.746-47.623-106.37-106.369-106.37l0,0
	c-58.746,0-106.369,47.623-106.369,106.369v105.9c0,4.264,3.457,7.721,7.722,7.721H419.59c4.935,0,8.787-4.228,8.386-9.146
	c-3.056-37.469-24.723-69.669-55.739-87.351C366.103,404.507,362.37,397.938,362.37,390.879z"/>
<path style="opacity:0.1;enable-background:new    ;" d="M256,284.509L256,284.509c-30.484,0-57.969,12.827-77.363,33.374
	c22.848,12.92,49.242,20.302,77.363,20.302s54.515-7.382,77.363-20.302C313.969,297.336,286.484,284.509,256,284.509z"/>
<circle style="fill:#FFD4B8;" cx="98.59" cy="165.12" r="27.761"/>
<circle style="fill:#DF85C6;" cx="91.98" cy="192.88" r="18.435"/>
<circle style="fill:#FFD4B8;" cx="413.41" cy="165.12" r="27.761"/>
<circle style="fill:#DF85C6;" cx="420.02" cy="192.88" r="18.435"/>
<circle style="fill:#FFD4B8;" cx="256" cy="164.91" r="157.41"/>
<path style="opacity:0.1;fill:#513130;enable-background:new    ;" d="M279.328,302.456c-86.937,0-157.414-70.476-157.414-157.414
	c0-42.492,16.842-81.044,44.208-109.365c-40.818,28.441-67.536,75.715-67.536,129.236c0,86.937,70.477,157.414,157.414,157.414
	c44.446,0,84.582-18.426,113.206-48.049C343.721,292.035,312.743,302.456,279.328,302.456z"/>
<path style="fill:#FFD4B8;" d="M292.907,480.762c-29.282,0.001-53.191-7.517-71.419-22.513
	c-22.853-18.8-35.328-49.529-34.224-84.306c0.334-10.533,9.138-18.805,19.677-18.466c10.533,0.335,18.8,9.144,18.465,19.676
	c-1.031,32.46,13.871,48.315,20.326,53.625c18.052,14.851,49.136,17.754,89.891,8.396c10.262-2.357,20.508,4.056,22.867,14.326
	c2.358,10.271-4.056,20.509-14.327,22.867C325.592,478.632,308.487,480.762,292.907,480.762z"/>
<path style="fill:#9B7E73;" d="M256,7.5c152.094,0,168.215,124.245,157.414,157.414c-19.53-7.654-190.799-63.343-200.265-97.954
	c-25.44,39.048-86.802,98.16-114.563,97.954l0,0C90.128,77.609,152.245,7.5,256,7.5z"/>
<path d="M448.674,165.12c0-16.198-10.708-29.833-25.766-33.969c-0.309-3.037-0.72-6.114-1.242-9.204
	c-0.69-4.084-4.559-6.837-8.645-6.145c-4.084,0.69-6.835,4.561-6.146,8.645c0.786,4.65,1.271,9.021,1.52,13.065
	c0.001,0.249,0.015,0.496,0.04,0.74c0.356,6.503,0.1,12.136-0.509,16.671c-2.144-0.763-4.592-1.628-7.317-2.592
	c-23.615-8.346-67.57-23.882-106.62-41.046c-62.519-27.479-72.301-41.536-73.605-46.304c-0.779-2.848-3.157-4.975-6.074-5.431
	c-2.916-0.459-5.832,0.84-7.444,3.315c-23.588,36.206-75.059,85.19-101.381,93.368c-1.647-36.293,9.763-69.705,32.534-94.79
	C165.207,31.494,207.107,15,256,15c39.516,0,72.418,8.641,97.793,25.683c20.307,13.638,35.423,32.252,44.93,55.325
	c1.578,3.83,5.964,5.653,9.792,4.077c3.829-1.578,5.655-5.962,4.077-9.792c-10.506-25.497-27.946-46.958-50.436-62.062
	C334.264,9.498,298.548,0,256,0c-53.176,0-99.02,18.241-129.088,51.362c-19.82,21.833-31.942,49.202-35.487,79.245
	c-15.998,3.337-28.099,17.602-28.099,34.513c0,6.21,1.674,12.327,4.766,17.673c-1.315,3.102-2.043,6.512-2.043,10.088
	c0,14.11,11.328,25.616,25.366,25.921V362.23c0,15.91,5.918,31.126,16.664,42.845c9.109,9.934,21.016,16.626,34.052,19.28v29.002
	c0,4.142,3.357,7.5,7.5,7.5s7.5-3.358,7.5-7.5v-62.479c0-28.743,12.273-55.62,33.816-74.436
	c19.97,8.606,41.963,13.384,65.053,13.384s45.083-4.778,65.053-13.384c21.543,18.815,33.816,45.692,33.816,74.436
	c0,9.781,5.23,18.839,13.651,23.641c29.772,16.972,49.204,47.419,51.978,81.445c0.029,0.359-0.12,0.604-0.252,0.747
	c-0.177,0.192-0.398,0.289-0.658,0.289H157.352c-0.122,0-0.222-0.1-0.222-0.222v-9.511c0-4.142-3.357-7.5-7.5-7.5
	s-7.5,3.358-7.5,7.5v9.511c0,8.393,6.828,15.222,15.222,15.222h262.236c4.427,0,8.688-1.867,11.688-5.123
	c3.014-3.271,4.535-7.692,4.173-12.132c-3.178-38.967-25.421-73.829-59.5-93.257c-3.751-2.138-6.081-6.204-6.081-10.609
	c0-31.018-12.408-60.145-34.376-81.516c35.798-19.779,63.508-52.471,76.789-91.757c2.487,0.781,5.087,1.211,7.734,1.211
	c14.301,0,25.935-11.634,25.935-25.935c0-3.576-0.728-6.986-2.042-10.088C447.001,177.448,448.674,171.33,448.674,165.12z
	 M78.325,165.12c0-8.202,4.96-15.314,12.033-18.487c-0.101,6.137,0.136,12.358,0.732,18.645c0.001,0.565,0.014,1.127,0.021,1.691
	c-4.389,0.146-8.502,1.386-12.08,3.458C78.57,168.717,78.325,166.941,78.325,165.12z M91.415,203.787
	c-5.765-0.299-10.366-5.069-10.366-10.906c0-5.838,4.601-10.607,10.366-10.906V203.787z M142.13,390.878v18.088
	c-20.843-5.574-35.716-24.399-35.716-46.736V234.298c14.82,31.823,39.498,58.16,70.091,75.064
	C154.539,330.734,142.13,359.861,142.13,390.878z M256,314.827c-80.462,0-146.311-63.72-149.762-143.346
	c17.63-4.078,39.378-20.839,55.495-35.229c19.019-16.979,37.796-37.509,51.083-55.655c19.224,21.598,76.272,48.228,182.793,85.877
	c4.078,1.442,7.522,2.659,10.205,3.624C403.071,250.369,336.927,314.827,256,314.827z M420.016,203.816
	c-1.234,0-2.447-0.22-3.596-0.626c1.652-6.924,2.874-14.014,3.619-21.243c6.018,0.012,10.912,4.912,10.912,10.934
	C430.95,198.911,426.045,203.816,420.016,203.816z M432.967,170.426c-3.578-2.072-7.691-3.312-12.08-3.458
	c0.004-0.307,0.01-0.612,0.012-0.919c1.527-5.174,2.409-11.479,2.629-18.43c6.06,3.542,10.147,10.128,10.147,17.502
	C433.674,166.941,433.43,168.717,432.967,170.426z M207.182,347.981c-7.091-0.227-13.862,2.322-19.04,7.184
	c-5.176,4.859-8.149,11.444-8.374,18.54c-1.179,37.12,12.291,70.046,36.955,90.336c19.538,16.073,45.17,24.223,76.184,24.222
	c16.101-0.001,33.91-2.216,52.934-6.585c6.92-1.589,12.808-5.777,16.577-11.794c3.77-6.017,4.971-13.142,3.382-20.062
	c-3.282-14.286-17.575-23.241-31.855-19.957c-38.401,8.817-67.259,6.44-83.447-6.878c-5.599-4.605-18.52-18.462-17.595-47.596
	C233.367,360.742,221.828,348.446,207.182,347.981z M240.967,434.571c19.914,16.383,53.225,19.812,96.334,9.914
	c6.228-1.427,12.448,2.472,13.879,8.695c0.692,3.015,0.169,6.118-1.474,8.74c-1.642,2.622-4.207,4.446-7.223,5.139
	c-17.925,4.116-34.604,6.204-49.577,6.204c-27.446,0.001-49.872-6.999-66.654-20.806c-21.044-17.312-32.522-45.842-31.492-78.277
	c0.098-3.093,1.394-5.962,3.648-8.079c2.161-2.029,4.956-3.133,7.911-3.133c0.127,0,0.255,0.002,0.383,0.006
	c6.382,0.203,11.409,5.56,11.207,11.942C216.773,410.704,233.656,428.557,240.967,434.571z M176.18,150.797
	c-11.977,0-21.72,9.743-21.72,21.719c0,4.142,3.357,7.5,7.5,7.5c4.142,0,7.5-3.358,7.5-7.5c0-3.705,3.015-6.719,6.72-6.719
	c3.705,0,6.719,3.014,6.719,6.719c0,4.142,3.357,7.5,7.5,7.5s7.5-3.358,7.5-7.5C197.897,160.54,188.155,150.797,176.18,150.797z
	 M267.191,203.855c-2.935,3.133-6.91,4.858-11.192,4.858c-4.282,0-8.258-1.726-11.192-4.858c-2.832-3.022-7.578-3.178-10.601-0.346
	c-3.023,2.832-3.179,7.578-0.347,10.601c5.718,6.103,13.787,9.604,22.14,9.604c8.353,0,16.422-3.5,22.14-9.604
	c2.832-3.023,2.677-7.769-0.347-10.601C274.771,200.676,270.023,200.833,267.191,203.855z M335.82,150.797
	c-11.976,0-21.719,9.743-21.719,21.719c0,4.142,3.357,7.5,7.5,7.5s7.5-3.358,7.5-7.5c0-3.705,3.014-6.719,6.719-6.719
	s6.72,3.014,6.72,6.719c0,4.142,3.357,7.5,7.5,7.5s7.5-3.358,7.5-7.5C357.54,160.54,347.797,150.797,335.82,150.797z"/>
<g>
</g>
<g>
</g>
<g>
</g>
<g>
</g>
<g>
</g>
<g>
</g>
<g>
</g>
<g>
</g>
<g>
</g>
<g>
</g>
<g>
</g>
<g>
</g>
<g>
</g>
<g>
</g>
<g>
</g>
</svg>
