<svg id="Layer_1" enable-background="new 0 0 512 512" height="512" viewBox="0 0 512 512" width="512" xmlns="http://www.w3.org/2000/svg"><path d="m407.2 17h-291v410.8h291c19.1 0 34.6-15.4 34.7-34.5v-341.8c-.1-19.1-15.6-34.5-34.7-34.5z" fill="#78ccff"/><path d="m104.8 17c-19.1-.1-34.7 15.4-34.8 34.5v341.8c.1 19.2 15.7 34.7 34.8 34.7h12.2v-411z" fill="#78a3f9"/><path d="m407.2 427.8h-290v67.2h290c19.1 0 34.6-15.4 34.7-34.5v-67.2c-.1 19.1-15.6 34.6-34.7 34.5z" fill="#c6a08f"/><path d="m94 393.3v-341.8c.1-14.6 9.3-27.6 23-32.5v-2h-12.2c-19.1-.1-34.7 15.4-34.8 34.5v341.8c.1 19.2 15.7 34.7 34.8 34.7h12.2v-2.1c-13.7-5-22.9-18-23-32.6z" fill="#6893d8"/><g fill="#64a3bc"><path d="m404.2 327.6h-9.4c-3.3 0-6-2.7-6-6s2.7-6 6-6h9.4c3.3 0 6 2.7 6 6s-2.7 6-6 6z"/><path d="m354.9 327.6h-37.7c-3.3 0-6-2.7-6-6s2.7-6 6-6h37.7c3.3 0 6 2.7 6 6s-2.7 6-6 6z"/><path d="m280.6 327.6h-129.1c-3.3 0-6-2.7-6-6s2.7-6 6-6h129.1c3.3 0 6 2.7 6 6s-2.7 6-6 6z"/><path d="m404.2 286.5h-45.1c-3.3 0-6-2.7-6-6s2.7-6 6-6h45.1c3.3 0 6 2.7 6 6s-2.7 6-6 6z"/><path d="m319.2 286.5h-109c-3.3 0-6-2.7-6-6s2.7-6 6-6h109c3.3 0 6 2.7 6 6s-2.7 6-6 6z"/><path d="m173.6 286.5h-22c-3.3 0-6-2.7-6-6s2.7-6 6-6h22c3.3 0 6 2.7 6 6s-2.7 6-6 6z"/><path d="m404.2 368.7h-211.9c-3.3 0-6-2.7-6-6s2.7-6 6-6h211.9c3.3 0 6 2.7 6 6s-2.7 6-6 6z"/><path d="m155.7 368.7h-4.2c-3.3 0-6-2.7-6-6s2.7-6 6-6h4.2c3.3 0 6 2.7 6 6s-2.7 6-6 6z"/></g><path d="m97.3 209.2c-3.3 0-6-2.7-6-6v-135.7c0-3.3 2.7-6 6-6s6 2.7 6 6v135.7c0 3.3-2.7 6-6 6z" fill="#f4f8fc"/><path d="m97.3 53c-3.3 0-6-2.7-6-6v-5.4c0-3.3 2.7-6 6-6s6 2.7 6 6v5.4c0 3.4-2.7 6-6 6z" fill="#f4f8fc"/><path d="m117.2 427.8v67.2h-12.3c-19.1 0-34.6-15.4-34.7-34.5v-67.2c.1 19.1 15.6 34.5 34.7 34.5z" fill="#5983d8"/><path d="m94.2 460.5v-34.4c-14.3-4.6-24-17.8-24-32.8v67.2c0 19.1 15.6 34.6 34.7 34.5h12.3v-2c-13.8-4.9-23-17.9-23-32.5z" fill="#4b75b7"/><path id="XMLID_7_" d="m409.2 472c0-3.3-2.7-6-6-6h-286v12h286c3.3 0 6-2.7 6-6z" fill="#aa887b"/><path id="XMLID_9_" d="m409.2 450.8c0-3.3-2.7-6-6-6h-286v12h286c3.3 0 6-2.7 6-6z" fill="#aa887b"/><g id="XMLID_5_"><circle id="XMLID_10_" cx="278.7" cy="158" fill="#eb7288" r="85.7"/><path id="XMLID_8_" d="m326.7 146v25h-34v34h-28v-34h-34v-25h34v-35h28v35z" fill="#d4e1f4"/><path id="XMLID_6_" d="m217.1 158c0-42.7 31.4-78.8 73.6-84.8-46.8-6.6-90.2 25.9-96.8 72.8-6.6 46.8 25.9 90.2 72.8 96.8 8 1.1 16.1 1.1 24.1 0-42.3-6-73.7-42.1-73.7-84.8z" fill="#ce657c"/></g></svg>